<?xml version="1.0" encoding="UTF-8" standalone="no"?>
<!-- Created with Inkscape (http://www.inkscape.org/) -->

<svg
   xmlns:dc="http://purl.org/dc/elements/1.1/"
   xmlns:cc="http://creativecommons.org/ns#"
   xmlns:rdf="http://www.w3.org/1999/02/22-rdf-syntax-ns#"
   xmlns:svg="http://www.w3.org/2000/svg"
   xmlns="http://www.w3.org/2000/svg"
   xmlns:sodipodi="http://sodipodi.sourceforge.net/DTD/sodipodi-0.dtd"
   xmlns:inkscape="http://www.inkscape.org/namespaces/inkscape"
   width="32in"
   height="18in"
   viewBox="0 0 812.80001 457.20001"
   version="1.1"
   id="svg8"
   inkscape:version="0.92.4 (5da689c313, 2019-01-14)"
   sodipodi:docname="internal_plate.svg">
  <defs
     id="defs2">
    <marker
       style="overflow:visible"
       refY="0.0"
       refX="0.0"
       orient="auto"
       id="DistanceX">
      <path
         id="path817"
         style="stroke:#000000; stroke-width:0.5"
         d="M 3,-3 L -3,3 M 0,-5 L  0,5" />
    </marker>
    <pattern
       y="0"
       x="0"
       width="8"
       patternUnits="userSpaceOnUse"
       id="Hatch"
       height="8">
      <path
         id="path820"
         stroke-width="0.25"
         stroke="#000000"
         linecap="square"
         d="M8 4 l-4,4" />
      <path
         id="path822"
         stroke-width="0.25"
         stroke="#000000"
         linecap="square"
         d="M6 2 l-4,4" />
      <path
         id="path824"
         stroke-width="0.25"
         stroke="#000000"
         linecap="square"
         d="M4 0 l-4,4" />
    </pattern>
    <symbol
       id="*Model_Space" />
    <symbol
       id="*Paper_Space" />
    <symbol
       id="*Paper_Space0" />
  </defs>
  <sodipodi:namedview
     id="base"
     pagecolor="#ffffff"
     bordercolor="#666666"
     borderopacity="1.0"
     inkscape:pageopacity="0.0"
     inkscape:pageshadow="2"
     inkscape:zoom="0.49497475"
     inkscape:cx="810.82071"
     inkscape:cy="443.81158"
     inkscape:document-units="mm"
     inkscape:current-layer="layer1"
     showgrid="false"
     units="in"
     inkscape:window-width="1920"
     inkscape:window-height="1001"
     inkscape:window-x="-9"
     inkscape:window-y="-9"
     inkscape:window-maximized="1" />
  <metadata
     id="metadata5">
    <rdf:RDF>
      <cc:Work
         rdf:about="">
        <dc:format>image/svg+xml</dc:format>
        <dc:type
           rdf:resource="http://purl.org/dc/dcmitype/StillImage" />
        <dc:title></dc:title>
      </cc:Work>
    </rdf:RDF>
  </metadata>
  <g
     inkscape:label="Layer 1"
     inkscape:groupmode="layer"
     id="layer1"
     transform="translate(0,160.20002)">
    <path
       inkscape:connector-curvature="0"
       d="m 19.206376,237.3086 36.517468,38.20316"
       style="fill:none;stroke:#ff0000;stroke-width:0.0254;stroke-linecap:round;stroke-opacity:1;stroke-miterlimit:4;stroke-dasharray:none"
       id="path918" />
    <path
       inkscape:connector-curvature="0"
       d="M 18.375002,97.288838 V 235.23564"
       style="fill:none;stroke:#ff0000;stroke-width:0.0254;stroke-linecap:round;stroke-opacity:1;stroke-miterlimit:4;stroke-dasharray:none"
       id="path920" />
    <g
       id="g1183"
       style="fill:none;stroke:#ff0000;stroke-opacity:1;stroke-width:0.0254;stroke-miterlimit:4;stroke-dasharray:none">
      <path
         id="path832"
         style="fill:none;stroke:#ff0000;stroke-width:0.0254;stroke-linecap:round;stroke-opacity:1;stroke-miterlimit:4;stroke-dasharray:none"
         d="m 110.786,209.39223 a 1.8000001,1.8000001 0 1 0 -3.6,0 1.8000001,1.8000001 0 1 0 3.6,0 z"
         inkscape:connector-curvature="0" />
      <path
         id="path834"
         style="fill:none;stroke:#ff0000;stroke-width:0.0254;stroke-linecap:round;stroke-opacity:1;stroke-miterlimit:4;stroke-dasharray:none"
         d="m 190.1102,209.39223 a 1.8000001,1.8000001 0 1 0 -3.6,0 1.8000001,1.8000001 0 1 0 3.6,0 z"
         inkscape:connector-curvature="0" />
      <path
         id="path836"
         style="fill:none;stroke:#ff0000;stroke-width:0.0254;stroke-linecap:round;stroke-opacity:1;stroke-miterlimit:4;stroke-dasharray:none"
         d="m 256.6074,215.74223 a 1.8000001,1.8000001 0 1 0 -3.6,0 1.8000001,1.8000001 0 1 0 3.6,0 z"
         inkscape:connector-curvature="0" />
      <path
         id="path838"
         style="fill:none;stroke:#ff0000;stroke-width:0.0254;stroke-linecap:round;stroke-opacity:1;stroke-miterlimit:4;stroke-dasharray:none"
         d="m 256.6074,132.15084 a 1.8000001,1.8000001 0 1 0 -3.6,0 1.8000001,1.8000001 0 1 0 3.6,0 z"
         inkscape:connector-curvature="0" />
      <path
         id="path840"
         style="fill:none;stroke:#ff0000;stroke-width:0.0254;stroke-linecap:round;stroke-opacity:1;stroke-miterlimit:4;stroke-dasharray:none"
         d="m 44.187201,215.74223 a 1.8000001,1.8000001 0 1 0 -3.6,0 1.8000001,1.8000001 0 1 0 3.6,0 z"
         inkscape:connector-curvature="0" />
      <path
         id="path842"
         style="fill:none;stroke:#ff0000;stroke-width:0.0254;stroke-linecap:round;stroke-opacity:1;stroke-miterlimit:4;stroke-dasharray:none"
         d="m 44.187201,132.15084 a 1.8000001,1.8000001 0 1 0 -3.6,0 1.8000001,1.8000001 0 1 0 3.6,0 z"
         inkscape:connector-curvature="0" />
      <path
         id="path844"
         style="fill:none;stroke:#ff0000;stroke-width:0.0254;stroke-linecap:round;stroke-opacity:1;stroke-miterlimit:4;stroke-dasharray:none"
         d="m 35.175001,204.76858 a 1.8000001,1.8000001 0 1 0 -3.6,0 1.8000001,1.8000001 0 1 0 3.6,0 z"
         inkscape:connector-curvature="0" />
      <path
         id="path846"
         style="fill:none;stroke:#ff0000;stroke-width:0.0254;stroke-linecap:round;stroke-opacity:1;stroke-miterlimit:4;stroke-dasharray:none"
         d="m 62.810333,-13.937626 a 2.9,2.9 0 1 0 -5.8,0 2.9,2.9 0 1 0 5.8,0 z"
         inkscape:connector-curvature="0" />
      <path
         id="path848"
         style="fill:none;stroke:#ff0000;stroke-width:0.0254;stroke-linecap:round;stroke-opacity:1;stroke-miterlimit:4;stroke-dasharray:none"
         d="m 117.77033,-13.937626 a 2.9,2.9 0 1 0 -5.8,0 2.9,2.9 0 1 0 5.8,0 z"
         inkscape:connector-curvature="0" />
      <path
         id="path850"
         style="fill:none;stroke:#ff0000;stroke-width:0.0254;stroke-linecap:round;stroke-opacity:1;stroke-miterlimit:4;stroke-dasharray:none"
         d="m 46.775001,99.313819 a 2.3999999,2.3999999 0 1 0 -4.799999,0 2.3999999,2.3999999 0 1 0 4.799999,0 z"
         inkscape:connector-curvature="0" />
      <path
         id="path852"
         style="fill:none;stroke:#ff0000;stroke-width:0.0254;stroke-linecap:round;stroke-opacity:1;stroke-miterlimit:4;stroke-dasharray:none"
         d="m 46.775001,161.58382 a 2.3999999,2.3999999 0 1 0 -4.799999,0 2.3999999,2.3999999 0 1 0 4.799999,0 z"
         inkscape:connector-curvature="0" />
      <path
         id="path854"
         style="fill:none;stroke:#ff0000;stroke-width:0.0254;stroke-linecap:round;stroke-opacity:1;stroke-miterlimit:4;stroke-dasharray:none"
         d="m 103.775,155.45178 a 2.3999999,2.3999999 0 1 0 -4.799999,0 2.3999999,2.3999999 0 1 0 4.799999,0 z"
         inkscape:connector-curvature="0" />
      <path
         id="path856"
         style="fill:none;stroke:#ff0000;stroke-width:0.0254;stroke-linecap:round;stroke-opacity:1;stroke-miterlimit:4;stroke-dasharray:none"
         d="m 103.775,93.181769 a 2.3999999,2.3999999 0 1 0 -4.799999,0 2.3999999,2.3999999 0 1 0 4.799999,0 z"
         inkscape:connector-curvature="0" />
      <path
         id="path858"
         style="fill:none;stroke:#ff0000;stroke-width:0.0254;stroke-linecap:round;stroke-opacity:1;stroke-miterlimit:4;stroke-dasharray:none"
         d="m 160.775,155.45178 a 2.4000001,2.4000001 0 1 0 -4.8,0 2.4000001,2.4000001 0 1 0 4.8,0 z"
         inkscape:connector-curvature="0" />
      <path
         id="path860"
         style="fill:none;stroke:#ff0000;stroke-width:0.0254;stroke-linecap:round;stroke-opacity:1;stroke-miterlimit:4;stroke-dasharray:none"
         d="m 160.775,93.181769 a 2.4000001,2.4000001 0 1 0 -4.8,0 2.4000001,2.4000001 0 1 0 4.8,0 z"
         inkscape:connector-curvature="0" />
      <path
         id="path862"
         style="fill:none;stroke:#ff0000;stroke-width:0.0254;stroke-linecap:round;stroke-opacity:1;stroke-miterlimit:4;stroke-dasharray:none"
         d="m 144.17289,-49.236558 a 1.8000001,1.8000001 0 1 0 -3.6,0 1.8000001,1.8000001 0 1 0 3.6,0 z"
         inkscape:connector-curvature="0" />
      <path
         id="path864"
         style="fill:none;stroke:#ff0000;stroke-width:0.0254;stroke-linecap:round;stroke-opacity:1;stroke-miterlimit:4;stroke-dasharray:none"
         d="m 210.84739,-49.493937 a 1.8000001,1.8000001 0 1 0 -3.6,0 1.8000001,1.8000001 0 1 0 3.6,0 z"
         inkscape:connector-curvature="0" />
      <path
         id="path866"
         style="fill:none;stroke:#ff0000;stroke-width:0.0254;stroke-linecap:round;stroke-opacity:1;stroke-miterlimit:4;stroke-dasharray:none"
         d="m 144.35551,-3.5169 a 1.8000001,1.8000001 0 1 0 -3.6,0 1.8000001,1.8000001 0 1 0 3.6,0 z"
         inkscape:connector-curvature="0" />
      <path
         id="path868"
         style="fill:none;stroke:#ff0000;stroke-width:0.0254;stroke-linecap:round;stroke-opacity:1;stroke-miterlimit:4;stroke-dasharray:none"
         d="m 211.02388,-3.7742788 a 1.8000001,1.8000001 0 1 0 -3.6,0 1.8000001,1.8000001 0 1 0 3.6,0 z"
         inkscape:connector-curvature="0" />
      <path
         id="path870"
         style="fill:none;stroke:#ff0000;stroke-width:0.0254;stroke-linecap:round;stroke-opacity:1;stroke-miterlimit:4;stroke-dasharray:none"
         d="m 85.454176,204.05219 a 1.8000001,1.8000001 0 1 0 -3.6,0 1.8000001,1.8000001 0 1 0 3.6,0 z"
         inkscape:connector-curvature="0" />
      <path
         id="path872"
         style="fill:none;stroke:#ff0000;stroke-width:0.0254;stroke-linecap:round;stroke-opacity:1;stroke-miterlimit:4;stroke-dasharray:none"
         d="m 100.45418,204.05219 a 1.8000015,1.8000015 0 1 0 -3.600003,0 1.8000015,1.8000015 0 1 0 3.600003,0 z"
         inkscape:connector-curvature="0" />
      <path
         id="path874"
         style="fill:none;stroke:#ff0000;stroke-width:0.0254;stroke-linecap:round;stroke-opacity:1;stroke-miterlimit:4;stroke-dasharray:none"
         d="m 175.675,170.26858 a 1.8000001,1.8000001 0 1 0 -3.6,0 1.8000001,1.8000001 0 1 0 3.6,0 z"
         inkscape:connector-curvature="0" />
      <path
         id="path876"
         style="fill:none;stroke:#ff0000;stroke-width:0.0254;stroke-linecap:round;stroke-opacity:1;stroke-miterlimit:4;stroke-dasharray:none"
         d="m 189.57468,26.314661 a 1.8000001,1.8000001 0 1 0 -3.6,0 1.8000001,1.8000001 0 1 0 3.6,0 z"
         inkscape:connector-curvature="0" />
      <path
         id="path878"
         style="fill:none;stroke:#ff0000;stroke-width:0.0254;stroke-linecap:round;stroke-opacity:1;stroke-miterlimit:4;stroke-dasharray:none"
         d="m 235.01468,26.314661 a 1.8000001,1.8000001 0 1 0 -3.6,0 1.8000001,1.8000001 0 1 0 3.6,0 z"
         inkscape:connector-curvature="0" />
      <path
         id="path880"
         style="fill:none;stroke:#ff0000;stroke-width:0.0254;stroke-linecap:round;stroke-opacity:1;stroke-miterlimit:4;stroke-dasharray:none"
         d="m 191.00727,96.149733 a 1.8000001,1.8000001 0 1 0 -3.6,0 1.8000001,1.8000001 0 1 0 3.6,0 z"
         inkscape:connector-curvature="0" />
      <path
         id="path882"
         style="fill:none;stroke:#ff0000;stroke-width:0.0254;stroke-linecap:round;stroke-opacity:1;stroke-miterlimit:4;stroke-dasharray:none"
         d="m 236.44727,96.149733 a 1.8000001,1.8000001 0 1 0 -3.6,0 1.8000001,1.8000001 0 1 0 3.6,0 z"
         inkscape:connector-curvature="0" />
      <path
         id="path884"
         style="fill:none;stroke:#ff0000;stroke-width:0.0254;stroke-linecap:round;stroke-opacity:1;stroke-miterlimit:4;stroke-dasharray:none"
         d="m 74.675001,170.01858 a 1.8000001,1.8000001 0 1 0 -3.6,0 1.8000001,1.8000001 0 1 0 3.6,0 z"
         inkscape:connector-curvature="0" />
      <path
         id="path886"
         style="fill:none;stroke:#ff0000;stroke-width:0.0254;stroke-linecap:round;stroke-opacity:1;stroke-miterlimit:4;stroke-dasharray:none"
         d="m 74.675001,239.51858 a 1.8000001,1.8000001 0 1 0 -3.6,0 1.8000001,1.8000001 0 1 0 3.6,0 z"
         inkscape:connector-curvature="0" />
      <path
         id="path888"
         style="fill:none;stroke:#ff0000;stroke-width:0.0254;stroke-linecap:round;stroke-opacity:1;stroke-miterlimit:4;stroke-dasharray:none"
         d="m 110.786,132.15084 a 1.8000001,1.8000001 0 1 0 -3.6,0 1.8000001,1.8000001 0 1 0 3.6,0 z"
         inkscape:connector-curvature="0" />
      <path
         id="path890"
         style="fill:none;stroke:#ff0000;stroke-width:0.0254;stroke-linecap:round;stroke-opacity:1;stroke-miterlimit:4;stroke-dasharray:none"
         d="m 207.8102,139.15083 a 12.5,12.5 0 1 0 -25,0 12.5,12.5 0 1 0 25,0 z"
         inkscape:connector-curvature="0" />
      <path
         id="path892"
         style="fill:none;stroke:#ff0000;stroke-width:0.0254;stroke-linecap:round;stroke-opacity:1;stroke-miterlimit:4;stroke-dasharray:none"
         d="m 175.675,239.76859 a 1.8000001,1.8000001 0 1 0 -3.6,0 1.8000001,1.8000001 0 1 0 3.6,0 z"
         inkscape:connector-curvature="0" />
      <path
         id="path894"
         style="fill:none;stroke:#ff0000;stroke-width:0.0254;stroke-linecap:round;stroke-opacity:1;stroke-miterlimit:4;stroke-dasharray:none"
         d="m 121.61,86.438837 h 54"
         inkscape:connector-curvature="0" />
      <path
         id="path896"
         style="fill:none;stroke:#ff0000;stroke-width:0.0254;stroke-linecap:round;stroke-opacity:1;stroke-miterlimit:4;stroke-dasharray:none"
         d="m 178.61,83.438837 v -42"
         inkscape:connector-curvature="0" />
      <path
         id="path898"
         style="fill:none;stroke:#ff0000;stroke-width:0.0254;stroke-linecap:round;stroke-opacity:1;stroke-miterlimit:4;stroke-dasharray:none"
         d="m 175.61,38.438838 h -54"
         inkscape:connector-curvature="0" />
      <path
         id="path900"
         style="fill:none;stroke:#ff0000;stroke-width:0.0254;stroke-linecap:round;stroke-opacity:1;stroke-miterlimit:4;stroke-dasharray:none"
         d="m 118.61,41.438837 v 42"
         inkscape:connector-curvature="0" />
      <path
         id="path902"
         style="fill:none;stroke:#ff0000;stroke-width:0.0254;stroke-linecap:round;stroke-opacity:1;stroke-miterlimit:4;stroke-dasharray:none"
         d="M 52.845,-35.854968 V 91.288837"
         inkscape:connector-curvature="0" />
      <path
         id="path904"
         style="fill:none;stroke:#ff0000;stroke-width:0.0254;stroke-linecap:round;stroke-opacity:1;stroke-miterlimit:4;stroke-dasharray:none"
         d="M 92.111955,-65.985987 54.078586,-38.279792"
         inkscape:connector-curvature="0" />
      <path
         id="path906"
         style="fill:none;stroke:#ff0000;stroke-width:0.0254;stroke-linecap:round;stroke-opacity:1;stroke-miterlimit:4;stroke-dasharray:none"
         d="M 203.34163,-66.56116 H 93.878369"
         inkscape:connector-curvature="0" />
      <path
         id="path908"
         style="fill:none;stroke:#ff0000;stroke-width:0.0254;stroke-linecap:round;stroke-opacity:1;stroke-miterlimit:4;stroke-dasharray:none"
         d="M 243.14141,-38.279792 205.10804,-65.985987"
         inkscape:connector-curvature="0" />
      <path
         id="path910"
         style="fill:none;stroke:#ff0000;stroke-width:0.0254;stroke-linecap:round;stroke-opacity:1;stroke-miterlimit:4;stroke-dasharray:none"
         d="M 244.375,91.288837 V -35.854968"
         inkscape:connector-curvature="0" />
      <path
         id="path912"
         style="fill:none;stroke:#ff0000;stroke-width:0.0254;stroke-linecap:round;stroke-opacity:1;stroke-miterlimit:4;stroke-dasharray:none"
         d="m 264.375,94.288836 h -17"
         inkscape:connector-curvature="0" />
      <path
         id="path914"
         style="fill:none;stroke:#ff0000;stroke-width:0.0254;stroke-linecap:round;stroke-opacity:1;stroke-miterlimit:4;stroke-dasharray:none"
         d="M 267.375,244.45663 V 97.288838"
         inkscape:connector-curvature="0" />
      <path
         id="path916"
         style="fill:none;stroke:#ff0000;stroke-width:0.0254;stroke-linecap:round;stroke-opacity:1;stroke-miterlimit:4;stroke-dasharray:none"
         d="M 57.89247,276.43883 H 227.2087"
         inkscape:connector-curvature="0" />
      <path
         id="path922"
         style="fill:none;stroke:#ff0000;stroke-width:0.0254;stroke-linecap:round;stroke-opacity:1;stroke-miterlimit:4;stroke-dasharray:none"
         d="m 49.845001,94.288836 h -28.47"
         inkscape:connector-curvature="0" />
      <path
         id="path924"
         style="fill:none;stroke:#ff0000;stroke-width:0.0254;stroke-linecap:round;stroke-opacity:1;stroke-miterlimit:4;stroke-dasharray:none"
         d="m 118.61,83.438837 a 3,3 0 0 0 3,3"
         inkscape:connector-curvature="0" />
      <path
         id="path926"
         style="fill:none;stroke:#ff0000;stroke-width:0.0254;stroke-linecap:round;stroke-opacity:1;stroke-miterlimit:4;stroke-dasharray:none"
         d="m 175.61,86.438837 a 3,3 0 0 0 3,-3"
         inkscape:connector-curvature="0" />
      <path
         id="path928"
         style="fill:none;stroke:#ff0000;stroke-width:0.0254;stroke-linecap:round;stroke-opacity:1;stroke-miterlimit:4;stroke-dasharray:none"
         d="m 178.61,41.438837 a 3,3 0 0 0 -3,-2.999999"
         inkscape:connector-curvature="0" />
      <path
         id="path930"
         style="fill:none;stroke:#ff0000;stroke-width:0.0254;stroke-linecap:round;stroke-opacity:1;stroke-miterlimit:4;stroke-dasharray:none"
         d="m 121.61,38.438838 a 3,3 0 0 0 -3,2.999999"
         inkscape:connector-curvature="0" />
      <path
         id="path932"
         style="fill:none;stroke:#ff0000;stroke-width:0.0254;stroke-linecap:round;stroke-opacity:1;stroke-miterlimit:4;stroke-dasharray:none"
         d="M 49.845001,94.288836 A 3,3 0 0 0 52.845,91.288837"
         inkscape:connector-curvature="0" />
      <path
         id="path934"
         style="fill:none;stroke:#ff0000;stroke-width:0.0254;stroke-linecap:round;stroke-opacity:1;stroke-miterlimit:4;stroke-dasharray:none"
         d="M 54.078586,-38.279792 A 3,3 0 0 0 52.845,-35.854968"
         inkscape:connector-curvature="0" />
      <path
         id="path936"
         style="fill:none;stroke:#ff0000;stroke-width:0.0254;stroke-linecap:round;stroke-opacity:1;stroke-miterlimit:4;stroke-dasharray:none"
         d="m 93.878369,-66.56116 a 3,3 0 0 0 -1.766414,0.575173"
         inkscape:connector-curvature="0" />
      <path
         id="path938"
         style="fill:none;stroke:#ff0000;stroke-width:0.0254;stroke-linecap:round;stroke-opacity:1;stroke-miterlimit:4;stroke-dasharray:none"
         d="m 205.10804,-65.985987 a 3,3 0 0 0 -1.76641,-0.575173"
         inkscape:connector-curvature="0" />
      <path
         id="path940"
         style="fill:none;stroke:#ff0000;stroke-width:0.0254;stroke-linecap:round;stroke-opacity:1;stroke-miterlimit:4;stroke-dasharray:none"
         d="m 244.375,-35.854968 a 3,3 0 0 0 -1.23359,-2.424824"
         inkscape:connector-curvature="0" />
      <path
         id="path942"
         style="fill:none;stroke:#ff0000;stroke-width:0.0254;stroke-linecap:round;stroke-opacity:1;stroke-miterlimit:4;stroke-dasharray:none"
         d="m 244.375,91.288837 a 3,3 0 0 0 3,2.999999"
         inkscape:connector-curvature="0" />
      <path
         id="path944"
         style="fill:none;stroke:#ff0000;stroke-width:0.0254;stroke-linecap:round;stroke-opacity:1;stroke-miterlimit:4;stroke-dasharray:none"
         d="m 267.375,97.288838 a 3,3 0 0 0 -3,-3.000002"
         inkscape:connector-curvature="0" />
      <path
         id="path946"
         style="fill:none;stroke:#ff0000;stroke-width:0.0254;stroke-linecap:round;stroke-opacity:1;stroke-miterlimit:4;stroke-dasharray:none"
         d="m 266.88319,246.10253 a 3,3 0 0 0 0.49181,-1.6459"
         inkscape:connector-curvature="0" />
      <path
         id="path948"
         style="fill:none;stroke:#ff0000;stroke-width:0.0254;stroke-linecap:round;stroke-opacity:1;stroke-miterlimit:4;stroke-dasharray:none"
         d="m 228.19368,276.27252 a 76.199999,76.199999 0 0 0 38.68951,-30.16999"
         inkscape:connector-curvature="0" />
      <path
         id="path950"
         style="fill:none;stroke:#ff0000;stroke-width:0.0254;stroke-linecap:round;stroke-opacity:1;stroke-miterlimit:4;stroke-dasharray:none"
         d="m 227.2087,276.43883 a 3,3 0 0 0 0.98498,-0.16631"
         inkscape:connector-curvature="0" />
      <path
         id="path952"
         style="fill:none;stroke:#ff0000;stroke-width:0.0254;stroke-linecap:round;stroke-opacity:1;stroke-miterlimit:4;stroke-dasharray:none"
         d="m 55.723844,275.51176 a 3,3 0 0 0 2.168626,0.92707"
         inkscape:connector-curvature="0" />
    </g>
    <path
       inkscape:connector-curvature="0"
       d="m 18.375002,235.23564 a 3,3 0 0 0 0.831374,2.07296"
       style="fill:none;stroke:#ff0000;stroke-width:0.0254;stroke-linecap:round;stroke-opacity:1;stroke-miterlimit:4;stroke-dasharray:none"
       id="path954" />
    <path
       inkscape:connector-curvature="0"
       d="m 21.375001,94.288836 a 3,3 0 0 0 -2.999999,3.000002"
       style="fill:none;stroke:#ff0000;stroke-width:0.0254;stroke-linecap:round;stroke-opacity:1;stroke-miterlimit:4;stroke-dasharray:none"
       id="path956" />
  </g>
</svg>
