<?xml version="1.0" encoding="UTF-8" standalone="no"?>
<!-- Created with Inkscape (http://www.inkscape.org/) -->

<svg
   xmlns:dc="http://purl.org/dc/elements/1.1/"
   xmlns:cc="http://creativecommons.org/ns#"
   xmlns:rdf="http://www.w3.org/1999/02/22-rdf-syntax-ns#"
   xmlns:svg="http://www.w3.org/2000/svg"
   xmlns="http://www.w3.org/2000/svg"
   xmlns:sodipodi="http://sodipodi.sourceforge.net/DTD/sodipodi-0.dtd"
   xmlns:inkscape="http://www.inkscape.org/namespaces/inkscape"
   width="32in"
   height="18in"
   viewBox="0 0 812.80001 457.20001"
   version="1.1"
   id="svg8"
   inkscape:version="0.92.4 (5da689c313, 2019-01-14)"
   sodipodi:docname="plate.svg">
  <defs
     id="defs2">
    <marker
       style="overflow:visible"
       refY="0.0"
       refX="0.0"
       orient="auto"
       id="DistanceX">
      <path
         id="path4520"
         style="stroke:#000000; stroke-width:0.5"
         d="M 3,-3 L -3,3 M 0,-5 L  0,5" />
    </marker>
    <pattern
       y="0"
       x="0"
       width="8"
       patternUnits="userSpaceOnUse"
       id="Hatch"
       height="8">
      <path
         id="path4523"
         stroke-width="0.25"
         stroke="#000000"
         linecap="square"
         d="M8 4 l-4,4" />
      <path
         id="path4525"
         stroke-width="0.25"
         stroke="#000000"
         linecap="square"
         d="M6 2 l-4,4" />
      <path
         id="path4527"
         stroke-width="0.25"
         stroke="#000000"
         linecap="square"
         d="M4 0 l-4,4" />
    </pattern>
    <symbol
       id="*Model_Space" />
    <symbol
       id="*Paper_Space" />
    <symbol
       id="*Paper_Space0" />
  </defs>
  <sodipodi:namedview
     id="base"
     pagecolor="#ffffff"
     bordercolor="#666666"
     borderopacity="1.0"
     inkscape:pageopacity="0.0"
     inkscape:pageshadow="2"
     inkscape:zoom="1.979899"
     inkscape:cx="936.00249"
     inkscape:cy="620.61881"
     inkscape:document-units="mm"
     inkscape:current-layer="g4807"
     showgrid="false"
     units="in"
     inkscape:window-width="1920"
     inkscape:window-height="1001"
     inkscape:window-x="-9"
     inkscape:window-y="-9"
     inkscape:window-maximized="1" />
  <metadata
     id="metadata5">
    <rdf:RDF>
      <cc:Work
         rdf:about="">
        <dc:format>image/svg+xml</dc:format>
        <dc:type
           rdf:resource="http://purl.org/dc/dcmitype/StillImage" />
        <dc:title></dc:title>
      </cc:Work>
    </rdf:RDF>
  </metadata>
  <g
     inkscape:label="Layer 1"
     inkscape:groupmode="layer"
     id="layer1"
     transform="translate(0,160.20002)">
    <g
       id="g4807"
       transform="translate(0.75595238,1.1339286)">
      <path
         id="path4535"
         style="fill:none;stroke:#ff0000;stroke-width:0.0254;stroke-linecap:round;stroke-miterlimit:4;stroke-dasharray:none;stroke-opacity:1"
         d="m 70.093347,0.31067375 a 2.9,2.9 0 1 0 -5.8,0 2.9,2.9 0 1 0 5.8,0 z"
         inkscape:connector-curvature="0" />
      <path
         id="path4537"
         style="fill:none;stroke:#ff0000;stroke-width:0.0254;stroke-linecap:round;stroke-miterlimit:4;stroke-dasharray:none;stroke-opacity:1"
         d="m 125.05335,0.31067375 a 2.9000002,2.9000002 0 1 0 -5.8,0 2.9000002,2.9000002 0 1 0 5.8,0 z"
         inkscape:connector-curvature="0" />
      <path
         id="path4539"
         style="fill:none;stroke:#ff0000;stroke-width:0.0254;stroke-linecap:round;stroke-miterlimit:4;stroke-dasharray:none;stroke-opacity:1"
         d="m 67.403524,125.46132 a 2.3999999,2.3999999 0 1 0 -4.799999,0 2.3999999,2.3999999 0 1 0 4.799999,0 z"
         inkscape:connector-curvature="0" />
      <path
         id="path4541"
         style="fill:none;stroke:#ff0000;stroke-width:0.0254;stroke-linecap:round;stroke-miterlimit:4;stroke-dasharray:none;stroke-opacity:1"
         d="m 67.403524,187.73132 a 2.3999999,2.3999999 0 1 0 -4.799999,0 2.3999999,2.3999999 0 1 0 4.799999,0 z"
         inkscape:connector-curvature="0" />
      <path
         id="path4543"
         style="fill:none;stroke:#ff0000;stroke-width:0.0254;stroke-linecap:round;stroke-miterlimit:4;stroke-dasharray:none;stroke-opacity:1"
         d="m 125.37312,189.90503 a 2.4000001,2.4000001 0 1 0 -4.8,0 2.4000001,2.4000001 0 1 0 4.8,0 z"
         inkscape:connector-curvature="0" />
      <path
         id="path4545"
         style="fill:none;stroke:#ff0000;stroke-width:0.0254;stroke-linecap:round;stroke-miterlimit:4;stroke-dasharray:none;stroke-opacity:1"
         d="m 125.37312,127.63504 a 2.4000001,2.4000001 0 1 0 -4.8,0 2.4000001,2.4000001 0 1 0 4.8,0 z"
         inkscape:connector-curvature="0" />
      <path
         id="path4547"
         style="fill:none;stroke:#ff0000;stroke-width:0.0254;stroke-linecap:round;stroke-miterlimit:4;stroke-dasharray:none;stroke-opacity:1"
         d="m 165.96535,141.99983 a 2.4,2.4 0 1 0 -4.8,0 2.4,2.4 0 1 0 4.8,0 z"
         inkscape:connector-curvature="0" />
      <path
         id="path4549"
         style="fill:none;stroke:#ff0000;stroke-width:0.0254;stroke-linecap:round;stroke-miterlimit:4;stroke-dasharray:none;stroke-opacity:1"
         d="m 228.23535,141.99983 a 2.4,2.4 0 1 0 -4.8,0 2.4,2.4 0 1 0 4.8,0 z"
         inkscape:connector-curvature="0" />
      <path
         id="path4551"
         style="fill:none;stroke:#ff0000;stroke-width:0.0254;stroke-linecap:round;stroke-miterlimit:4;stroke-dasharray:none;stroke-opacity:1"
         d="m 167.04119,-20.328162 a 1.8000001,1.8000001 0 1 0 -3.6,0 1.8000001,1.8000001 0 1 0 3.6,0 z"
         inkscape:connector-curvature="0" />
      <path
         id="path4553"
         style="fill:none;stroke:#ff0000;stroke-width:0.0254;stroke-linecap:round;stroke-miterlimit:4;stroke-dasharray:none;stroke-opacity:1"
         d="m 233.71618,-20.328162 a 1.8000001,1.8000001 0 1 0 -3.6,0 1.8000001,1.8000001 0 1 0 3.6,0 z"
         inkscape:connector-curvature="0" />
      <path
         id="path4555"
         style="fill:none;stroke:#ff0000;stroke-width:0.0254;stroke-linecap:round;stroke-miterlimit:4;stroke-dasharray:none;stroke-opacity:1"
         d="m 167.04119,25.391837 a 1.8000001,1.8000001 0 1 0 -3.6,0 1.8000001,1.8000001 0 1 0 3.6,0 z"
         inkscape:connector-curvature="0" />
      <path
         id="path4557"
         style="fill:none;stroke:#ff0000;stroke-width:0.0254;stroke-linecap:round;stroke-miterlimit:4;stroke-dasharray:none;stroke-opacity:1"
         d="m 233.71618,25.391837 a 1.8000001,1.8000001 0 1 0 -3.6,0 1.8000001,1.8000001 0 1 0 3.6,0 z"
         inkscape:connector-curvature="0" />
      <path
         id="path4559"
         style="fill:none;stroke:#ff0000;stroke-width:0.0254;stroke-linecap:round;stroke-miterlimit:4;stroke-dasharray:none;stroke-opacity:1"
         d="m 223.41819,60.918219 a 1.8000001,1.8000001 0 1 0 -3.6,0 1.8000001,1.8000001 0 1 0 3.6,0 z"
         inkscape:connector-curvature="0" />
      <path
         id="path4561"
         style="fill:none;stroke:#ff0000;stroke-width:0.0254;stroke-linecap:round;stroke-miterlimit:4;stroke-dasharray:none;stroke-opacity:1"
         d="m 101.73727,62.678264 a 1.8000015,1.8000015 0 1 0 -3.600003,0 1.8000015,1.8000015 0 1 0 3.600003,0 z"
         inkscape:connector-curvature="0" />
      <path
         id="path4563"
         style="fill:none;stroke:#ff0000;stroke-width:0.0254;stroke-linecap:round;stroke-miterlimit:4;stroke-dasharray:none;stroke-opacity:1"
         d="m 102.11993,106.52659 a 1.800002,1.800002 0 1 0 -3.600004,0 1.800002,1.800002 0 1 0 3.600004,0 z"
         inkscape:connector-curvature="0" />
      <path
         id="path4565"
         style="fill:none;stroke:#ff0000;stroke-width:0.0254;stroke-linecap:round;stroke-miterlimit:4;stroke-dasharray:none;stroke-opacity:1"
         d="m 223.03553,104.76655 a 1.8000001,1.8000001 0 1 0 -3.6,0 1.8000001,1.8000001 0 1 0 3.6,0 z"
         inkscape:connector-curvature="0" />
      <path
         id="path4567"
         style="fill:none;stroke:#ff0000;stroke-width:0.0254;stroke-linecap:round;stroke-miterlimit:4;stroke-dasharray:none;stroke-opacity:1"
         d="m 120.49988,52.273977 v 42"
         inkscape:connector-curvature="0" />
      <path
         id="path4569"
         style="fill:none;stroke:#ff0000;stroke-width:0.0254;stroke-linecap:round;stroke-miterlimit:4;stroke-dasharray:none;stroke-opacity:1"
         d="m 123.49988,49.273978 a 3,3 0 0 0 -3,2.999999"
         inkscape:connector-curvature="0" />
      <path
         id="path4571"
         style="fill:none;stroke:#ff0000;stroke-width:0.0254;stroke-linecap:round;stroke-miterlimit:4;stroke-dasharray:none;stroke-opacity:1"
         d="m 177.49988,49.273978 h -54"
         inkscape:connector-curvature="0" />
      <path
         id="path4573"
         style="fill:none;stroke:#ff0000;stroke-width:0.0254;stroke-linecap:round;stroke-miterlimit:4;stroke-dasharray:none;stroke-opacity:1"
         d="m 180.49988,52.273977 a 3,3 0 0 0 -3,-2.999999"
         inkscape:connector-curvature="0" />
      <path
         id="path4575"
         style="fill:none;stroke:#ff0000;stroke-width:0.0254;stroke-linecap:round;stroke-miterlimit:4;stroke-dasharray:none;stroke-opacity:1"
         d="m 180.49988,94.273977 v -42"
         inkscape:connector-curvature="0" />
      <path
         id="path4577"
         style="fill:none;stroke:#ff0000;stroke-width:0.0254;stroke-linecap:round;stroke-miterlimit:4;stroke-dasharray:none;stroke-opacity:1"
         d="m 177.49988,97.273977 a 3,3 0 0 0 3,-3"
         inkscape:connector-curvature="0" />
      <path
         id="path4579"
         style="fill:none;stroke:#ff0000;stroke-width:0.0254;stroke-linecap:round;stroke-miterlimit:4;stroke-dasharray:none;stroke-opacity:1"
         d="m 123.49988,97.273977 h 54"
         inkscape:connector-curvature="0" />
      <path
         id="path4581"
         style="fill:none;stroke:#ff0000;stroke-width:0.0254;stroke-linecap:round;stroke-miterlimit:4;stroke-dasharray:none;stroke-opacity:1"
         d="m 120.49988,94.273977 a 3,3 0 0 0 3,3"
         inkscape:connector-curvature="0" />
      <path
         id="path4583"
         style="fill:none;stroke:#ff0000;stroke-width:0.0254;stroke-linecap:round;stroke-miterlimit:4;stroke-dasharray:none;stroke-opacity:1"
         d="m 51.734881,105.12398 h -28.47"
         inkscape:connector-curvature="0" />
      <path
         id="path4585"
         style="fill:none;stroke:#ff0000;stroke-width:0.0254;stroke-linecap:round;stroke-miterlimit:4;stroke-dasharray:none;stroke-opacity:1"
         d="m 23.264881,105.12398 a 3,3 0 0 0 -2.999999,3"
         inkscape:connector-curvature="0" />
      <path
         id="path4587"
         style="fill:none;stroke:#ff0000;stroke-width:0.0254;stroke-linecap:round;stroke-miterlimit:4;stroke-dasharray:none;stroke-opacity:1"
         d="m 20.264882,108.12398 v 137.9468"
         inkscape:connector-curvature="0" />
      <path
         id="path4589"
         style="fill:none;stroke:#ff0000;stroke-width:0.0254;stroke-linecap:round;stroke-miterlimit:4;stroke-dasharray:none;stroke-opacity:1"
         d="m 20.264882,246.07078 a 3,3 0 0 0 0.831374,2.07296"
         inkscape:connector-curvature="0" />
      <path
         id="path4591"
         style="fill:none;stroke:#ff0000;stroke-width:0.0254;stroke-linecap:round;stroke-miterlimit:4;stroke-dasharray:none;stroke-opacity:1"
         d="M 21.096256,248.14374 57.613724,286.3469"
         inkscape:connector-curvature="0" />
      <path
         id="path4593"
         style="fill:none;stroke:#ff0000;stroke-width:0.0254;stroke-linecap:round;stroke-miterlimit:4;stroke-dasharray:none;stroke-opacity:1"
         d="m 57.613724,286.3469 a 3,3 0 0 0 2.168626,0.92707"
         inkscape:connector-curvature="0" />
      <path
         id="path4595"
         style="fill:none;stroke:#ff0000;stroke-width:0.0254;stroke-linecap:round;stroke-miterlimit:4;stroke-dasharray:none;stroke-opacity:1"
         d="M 59.78235,287.27397 H 229.09858"
         inkscape:connector-curvature="0" />
      <path
         id="path4597"
         style="fill:none;stroke:#ff0000;stroke-width:0.0254;stroke-linecap:round;stroke-miterlimit:4;stroke-dasharray:none;stroke-opacity:1"
         d="m 229.09858,287.27397 a 3,3 0 0 0 0.98498,-0.16631"
         inkscape:connector-curvature="0" />
      <path
         id="path4599"
         style="fill:none;stroke:#ff0000;stroke-width:0.0254;stroke-linecap:round;stroke-miterlimit:4;stroke-dasharray:none;stroke-opacity:1"
         d="m 230.08356,287.10766 a 76.199999,76.199999 0 0 0 38.68951,-30.16999"
         inkscape:connector-curvature="0" />
      <path
         id="path4601"
         style="fill:none;stroke:#ff0000;stroke-width:0.0254;stroke-linecap:round;stroke-miterlimit:4;stroke-dasharray:none;stroke-opacity:1"
         d="m 268.77307,256.93767 a 3,3 0 0 0 0.49181,-1.6459"
         inkscape:connector-curvature="0" />
      <path
         id="path4603"
         style="fill:none;stroke:#ff0000;stroke-width:0.0254;stroke-linecap:round;stroke-miterlimit:4;stroke-dasharray:none;stroke-opacity:1"
         d="M 269.26488,255.29177 V 108.12398"
         inkscape:connector-curvature="0" />
      <path
         id="path4605"
         style="fill:none;stroke:#ff0000;stroke-width:0.0254;stroke-linecap:round;stroke-miterlimit:4;stroke-dasharray:none;stroke-opacity:1"
         d="m 269.26488,108.12398 a 3,3 0 0 0 -3,-3"
         inkscape:connector-curvature="0" />
      <path
         id="path4607"
         style="fill:none;stroke:#ff0000;stroke-width:0.0254;stroke-linecap:round;stroke-miterlimit:4;stroke-dasharray:none;stroke-opacity:1"
         d="m 266.26488,105.12398 h -17"
         inkscape:connector-curvature="0" />
      <path
         id="path4609"
         style="fill:none;stroke:#ff0000;stroke-width:0.0254;stroke-linecap:round;stroke-miterlimit:4;stroke-dasharray:none;stroke-opacity:1"
         d="m 246.26488,102.12398 a 3,3 0 0 0 3,3"
         inkscape:connector-curvature="0" />
      <path
         id="path4611"
         style="fill:none;stroke:#ff0000;stroke-width:0.0254;stroke-linecap:round;stroke-miterlimit:4;stroke-dasharray:none;stroke-opacity:1"
         d="M 246.26488,102.12398 V -43.575427"
         inkscape:connector-curvature="0" />
      <path
         id="path4613"
         style="fill:none;stroke:#ff0000;stroke-width:0.0254;stroke-linecap:round;stroke-miterlimit:4;stroke-dasharray:none;stroke-opacity:1"
         d="m 246.26488,-43.575427 a 3,3 0 0 0 -1.23359,-2.424827"
         inkscape:connector-curvature="0" />
      <path
         id="path4615"
         style="fill:none;stroke:#ff0000;stroke-width:0.0254;stroke-linecap:round;stroke-miterlimit:4;stroke-dasharray:none;stroke-opacity:1"
         d="m 245.03129,-46.000254 -12.56137,-9.150593"
         inkscape:connector-curvature="0" />
      <path
         id="path4617"
         style="fill:none;stroke:#ff0000;stroke-width:0.0254;stroke-linecap:round;stroke-miterlimit:4;stroke-dasharray:none;stroke-opacity:1"
         d="m 232.46992,-55.150847 a 3,3 0 0 0 -1.76641,-0.575173"
         inkscape:connector-curvature="0" />
      <path
         id="path4619"
         style="fill:none;stroke:#ff0000;stroke-width:0.0254;stroke-linecap:round;stroke-miterlimit:4;stroke-dasharray:none;stroke-opacity:1"
         d="M 230.70351,-55.72602 H 70.296254"
         inkscape:connector-curvature="0" />
      <path
         id="path4621"
         style="fill:none;stroke:#ff0000;stroke-width:0.0254;stroke-linecap:round;stroke-miterlimit:4;stroke-dasharray:none;stroke-opacity:1"
         d="m 70.296254,-55.72602 a 3,3 0 0 0 -1.766414,0.575173"
         inkscape:connector-curvature="0" />
      <path
         id="path4623"
         style="fill:none;stroke:#ff0000;stroke-width:0.0254;stroke-linecap:round;stroke-miterlimit:4;stroke-dasharray:none;stroke-opacity:1"
         d="m 68.52984,-55.150847 -12.561374,9.150593"
         inkscape:connector-curvature="0" />
      <path
         id="path4625"
         style="fill:none;stroke:#ff0000;stroke-width:0.0254;stroke-linecap:round;stroke-miterlimit:4;stroke-dasharray:none;stroke-opacity:1"
         d="m 55.968466,-46.000254 a 3,3 0 0 0 -1.233586,2.424827"
         inkscape:connector-curvature="0" />
      <path
         id="path4627"
         style="fill:none;stroke:#ff0000;stroke-width:0.0254;stroke-linecap:round;stroke-miterlimit:4;stroke-dasharray:none;stroke-opacity:1"
         d="M 54.73488,-43.575427 V 102.12398"
         inkscape:connector-curvature="0" />
      <path
         id="path4629"
         style="fill:none;stroke:#ff0000;stroke-width:0.0254;stroke-linecap:round;stroke-miterlimit:4;stroke-dasharray:none;stroke-opacity:1"
         d="m 51.734881,105.12398 a 3,3 0 0 0 2.999999,-3"
         inkscape:connector-curvature="0" />
    </g>
  </g>
</svg>
